<?xml version="1.0"?>
<svg xmlns="http://www.w3.org/2000/svg" id="outline" height="512px" viewBox="0 0 512 512" width="512px" class=""><g><path d="m488 208.00115h-3.05591l2.21118-4.42236a7.99983 7.99983 0 0 0 -1.498-9.23438l-7.51563-7.51513a36.97058 36.97058 0 0 0 -52.28418.00049l-7.51465 7.51464a7.99983 7.99983 0 0 0 -1.498 9.23438l2.21118 4.42236h-19.05599v-24a8.00008 8.00008 0 0 0 -8-8h-16v-72a8.00008 8.00008 0 0 0 -8-8h-128a8.00008 8.00008 0 0 0 -8 8v72h-16a8.00008 8.00008 0 0 0 -8 8v24h-40.80493a40.068 40.068 0 0 0 -39.19507-32h-16v-10.165a15.97263 15.97263 0 0 0 -5.36792-29.59942l-14.2793-38.07873a15.92552 15.92552 0 0 0 3.64722-10.15685c0-.34338-.03-.6792-.05151-1.01727l48.97851-32.65271a15.8555 15.8555 0 0 0 3.40381 1.2287l-2.7312 3.64148a8.00088 8.00088 0 0 0 1.96289 11.456l21.11621 14.07765 7.42969 44.58154a8 8 0 0 0 14.44531 3.27246l56-80a8.00015 8.00015 0 0 0 -6.55371-12.58785h-37.57812l-21.98438-14.65625a7.998 7.998 0 0 0 -10.83789 1.85645l-3.69092 4.92108a15.98924 15.98924 0 0 0 -29.90869 7.87872c0 .34351.03027.67951.05151 1.0177l-48.97827 32.65235a15.984 15.984 0 1 0 -9.70532 30.09436l14.2793 38.07873a15.96419 15.96419 0 0 0 4.35278 23.99188v10.165h-8a40.068 40.068 0 0 0 -39.19507 32h-24.80493a8.00008 8.00008 0 0 0 -8 8v40a8.00008 8.00008 0 0 0 8 8h16v200a8.00008 8.00008 0 0 0 8 8h8v8a8 8 0 1 0 16 0v-8h24v8a8 8 0 1 0 16 0v-8h64v8a8 8 0 1 0 16 0v-8h16a8.00008 8.00008 0 0 0 8-8v-48h208v48a8.00008 8.00008 0 0 0 8 8h8v8a8 8 0 1 0 16 0v-8h8a8.00008 8.00008 0 0 0 8-8v-200h16a8.00008 8.00008 0 0 0 8-8v-40a8.00008 8.00008 0 0 0 -8-8.00002zm-310.14062-165.14551 17.70312 11.80176a7.99828 7.99828 0 0 0 4.4375 1.34375h24.63477l-35.96192 51.37451-4.78125-28.68994a8.00266 8.00266 0 0 0 -3.4541-5.34082l-16.96387-11.30908zm255.875 158.7251 3.43652-3.437a20.97052 20.97052 0 0 1 29.65722-.00049l3.4375 3.4375-3.21 6.42041h-30.11128zm-185.73438-89.57959h112v64h-16v.02777a46.12383 46.12383 0 0 0 -19.57812 4.817 30.04054 30.04054 0 0 1 -13.36622 3.15527h-14.11132a30.04054 30.04054 0 0 1 -13.36622-3.15527 46.12383 46.12383 0 0 0 -19.57812-4.817v-.02777h-16zm-24 80h39.05566a30.04041 30.04041 0 0 1 13.36622 3.15528 46.12376 46.12376 0 0 0 20.52246 4.84472h14.11132a46.12376 46.12376 0 0 0 20.52246-4.84472 30.04041 30.04041 0 0 1 13.36622-3.15528h39.05566v16h-160zm-136 0h40a24.04166 24.04166 0 0 1 22.62891 16h-85.25782a24.04166 24.04166 0 0 1 22.62891-16zm-16 72v192h-16v-192zm16 64h112v48h-112zm112-16h-112v-48h112zm-112 144v-64h112v64zm128-56v-136h208v136zm240 56h-16v-192h16zm24-208h-448v-24h448z" data-original="#000000" class="active-path" data-old_color="#000000" fill="#FFFFFF"/><path d="m120 344.001h48v16h-48z" data-original="#000000" class="active-path" data-old_color="#000000" fill="#FFFFFF"/><path d="m120 408.001h48v16h-48z" data-original="#000000" class="active-path" data-old_color="#000000" fill="#FFFFFF"/><path d="m120 280.001h48v16h-48z" data-original="#000000" class="active-path" data-old_color="#000000" fill="#FFFFFF"/></g> </svg>
