<?xml version="1.0"?>
<svg xmlns="http://www.w3.org/2000/svg" viewBox="0 0 64 64" width="512px" height="512px"><g><g id="Receptionist"><path d="M61,42H59V37a9.014,9.014,0,0,0-9-9H48V25.05a9.007,9.007,0,0,0,4.95-7.1,3.48,3.48,0,0,0,.05-6.9V10a1,1,0,0,0,1-1V3a1,1,0,0,0-1-1H35a1,1,0,0,0-1,1V9a1,1,0,0,0,1,1v1.05a3.48,3.48,0,0,0,.05,6.9A9.007,9.007,0,0,0,40,25.05V28H37a9.014,9.014,0,0,0-9,9v5H3a1,1,0,0,0-1,1v4a1,1,0,0,0,1,1H4V61a1,1,0,0,0,1,1H59a1,1,0,0,0,1-1V48h1a1,1,0,0,0,1-1V43A1,1,0,0,0,61,42ZM53,13.09a1.494,1.494,0,0,1,0,2.82ZM35,15.91a1.494,1.494,0,0,1,0-2.82ZM51.71,35.29,50.41,34l1.3-1.29a1,1,0,0,0,.13-1.25l-.9-1.39A7,7,0,0,1,57,37v5H53V39H51v3H45V39.66l6.39-2.74a.977.977,0,0,0,.59-.73A1.026,1.026,0,0,0,51.71,35.29ZM47.43,30,44,36.78,40.57,30ZM42,28V25.77a8.811,8.811,0,0,0,4,0V28Zm7.16,3,.56.86-1.43,1.43a1.008,1.008,0,0,0,0,1.42l.96.95L46.13,37ZM36,4H52V8H36Zm14.52,6-1.2,3H38.68l-1.2-3ZM37,17V14.19l.07.18A1,1,0,0,0,38,15H50a1,1,0,0,0,.93-.63l.07-.18V17a7,7,0,0,1-14,0Zm1.84,14,3.03,6-3.12-1.34.96-.95a1.008,1.008,0,0,0,0-1.42l-1.43-1.43ZM30,37a7.008,7.008,0,0,1,7-7h.1l-.94,1.46a1,1,0,0,0,.13,1.25L37.59,34l-1.3,1.29a1.026,1.026,0,0,0-.27.9.977.977,0,0,0,.59.73L43,39.66V42H36V39H34v3H30ZM58,60H6V48H58Zm2-14H4V44H60Z" data-original="#000000" class="active-path" data-old_color="#000000" fill="#FFFFFF"/><path d="M22,36H20.91A5.992,5.992,0,0,0,16,31.09V30h2V28H12v2h2v1.09A5.992,5.992,0,0,0,9.09,36H8a1,1,0,0,0-1,1v3a1,1,0,0,0,1,1H22a1,1,0,0,0,1-1V37A1,1,0,0,0,22,36Zm-7-3a4,4,0,0,1,3.86,3H11.14A4,4,0,0,1,15,33Zm6,6H9V38H21Z" data-original="#000000" class="active-path" data-old_color="#000000" fill="#FFFFFF"/></g></g> </svg>
